<svg xmlns="http://www.w3.org/2000/svg" xmlns:xlink="http://www.w3.org/1999/xlink" aria-hidden="true" role="img" class="iconify iconify--ph" width="32" height="32" preserveAspectRatio="xMidYMid meet" viewBox="0 0 256 256"><path d="M200 34h-36a14.016 14.016 0 0 0-14 14v160a14.016 14.016 0 0 0 14 14h36a14.016 14.016 0 0 0 14-14V48a14.016 14.016 0 0 0-14-14zm2 174a2.002 2.002 0 0 1-2 2h-36a2.002 2.002 0 0 1-2-2V48a2.002 2.002 0 0 1 2-2h36a2.002 2.002 0 0 1 2 2zM92 34H56a14.016 14.016 0 0 0-14 14v160a14.016 14.016 0 0 0 14 14h36a14.016 14.016 0 0 0 14-14V48a14.016 14.016 0 0 0-14-14zm2 174a2.002 2.002 0 0 1-2 2H56a2.002 2.002 0 0 1-2-2V48a2.002 2.002 0 0 1 2-2h36a2.002 2.002 0 0 1 2 2z" fill="currentColor"></path></svg>